<?xml version="1.0" encoding="UTF-8" standalone="no"?>
<!-- Created with Inkscape (http://www.inkscape.org/) -->

<svg
   xmlns:dc="http://purl.org/dc/elements/1.1/"
   xmlns:cc="http://creativecommons.org/ns#"
   xmlns:rdf="http://www.w3.org/1999/02/22-rdf-syntax-ns#"
   xmlns:svg="http://www.w3.org/2000/svg"
   xmlns="http://www.w3.org/2000/svg"
   xmlns:xlink="http://www.w3.org/1999/xlink"
   xmlns:sodipodi="http://sodipodi.sourceforge.net/DTD/sodipodi-0.dtd"
   xmlns:inkscape="http://www.inkscape.org/namespaces/inkscape"
   width="700"
   height="630"
   id="svg2"
   version="1.1"
   inkscape:version="0.48.4 r9939"
   sodipodi:docname="temasonata2P.svg">
  <defs
     id="defs4" />
  <sodipodi:namedview
     id="base"
     pagecolor="#ffffff"
     bordercolor="#666666"
     borderopacity="1.0"
     inkscape:pageopacity="0.0"
     inkscape:pageshadow="2"
     inkscape:zoom="0.50800556"
     inkscape:cx="672.07253"
     inkscape:cy="401.91828"
     inkscape:document-units="px"
     inkscape:current-layer="layer1"
     showgrid="false"
     showguides="true"
     inkscape:guide-bbox="true"
     inkscape:window-width="1366"
     inkscape:window-height="666"
     inkscape:window-x="0"
     inkscape:window-y="31"
     inkscape:window-maximized="1" />
  <metadata
     id="metadata7">
    <rdf:RDF>
      <cc:Work
         rdf:about="">
        <dc:format>image/svg+xml</dc:format>
        <dc:type
           rdf:resource="http://purl.org/dc/dcmitype/StillImage" />
        <dc:title></dc:title>
      </cc:Work>
    </rdf:RDF>
  </metadata>
  <g
     inkscape:label="Layer 1"
     inkscape:groupmode="layer"
     id="layer1"
     transform="translate(0,-422.36218)">
    <g
       id="g4322"
       transform="translate(-19.842412,96.455637)">
      <image
         width="610.02643"
         height="178.41129"
         xlink:href="file:///home/lucida/luteria/axis/tema_inicial_sonata2pianos.png"
         id="image4031"
         x="58.609715"
         y="348.95779" />
      <g
         id="g4090"
         transform="translate(7.0720927,95.097707)">
        <image
           y="438.0278"
           x="13.723926"
           id="image3186"
           xlink:href="file:///home/lucida/luteria/axis/PRoll.png"
           height="407.78287"
           width="695.18701" />
        <g
           id="g3404"
           style="fill:#00ff00">
          <path
             inkscape:connector-curvature="0"
             d="m 128.35944,621.3744 c -0.19251,-7.85974 0.93144,-15.49914 2.71487,-23.12787 2.31977,-9.02064 6.8341,-17.17535 11.65331,-25.06227 4.17617,-6.94689 9.10054,-13.32072 14.52178,-19.32404 5.81468,-6.63142 12.14436,-12.72837 18.89565,-18.39171 10.62632,-8.49485 22.75939,-14.87613 34.67996,-21.33499 4.14939,-2.2664 8.72973,-3.49585 13.14228,-5.10202 2.08919,-0.67511 1.15216,-0.18675 2.83501,-1.4183 0,0 -15.30406,12.35453 -15.30406,12.35453 l 0,0 c -1.94937,0.79584 -0.94793,0.4233 -3.00652,1.11169 -4.36011,1.41811 -8.7007,2.96213 -12.72613,5.18868 -7.8622,4.31799 -1.23617,0.70719 10.79883,-6.35062 1.03074,-0.60446 -2.10403,1.13495 -3.12895,1.74922 -1.82278,1.09247 -4.56746,2.95128 -6.26985,4.18137 -1.1112,0.80293 -2.19174,1.64745 -3.28762,2.47118 -6.80112,5.53832 -13.20535,11.48052 -18.96071,18.11722 -5.40494,5.98376 -10.54672,12.14101 -14.76189,19.05192 -4.83111,7.71216 -9.40185,15.66105 -11.87733,24.48904 -1.76373,7.39603 -3.2072,14.81084 -2.37734,22.45924 0,0 -17.54129,8.93773 -17.54129,8.93773 z"
             id="path3297"
             style="opacity:0.93999999;fill:#00ff00;fill-opacity:1;stroke:none" />
          <path
             inkscape:connector-curvature="0"
             d="m 202.15103,498.03748 c 4.06537,0.074 8.13211,0.0593 12.19811,0.0708 4.07508,-0.008 8.15014,-0.0158 12.22521,-0.0335 2.91154,0.59453 5.97114,0.58087 8.82472,1.40655 3.05797,1.49356 3.32485,4.62503 3.53762,7.6678 0.34467,5.88434 -0.67009,11.68339 -1.809,17.42607 -0.83108,3.80121 -1.77294,7.57474 -2.74707,11.34124 0,0 -17.569,8.3672 -17.569,8.3672 l 0,0 c 1.08098,-3.72805 2.01964,-7.48658 2.90252,-11.26634 1.12843,-5.54618 2.27789,-11.15224 1.8398,-16.84853 -0.16519,-2.09613 0.0665,-4.7828 -2.38069,-5.46766 -2.7998,-0.50052 -5.63745,-0.90553 -8.47439,-1.09211 -4.0443,-0.0178 -8.08859,-0.0254 -12.13291,-0.0335 -4.13098,0.0115 -8.26263,-0.002 -12.39302,0.0708 0,0 15.9781,-11.60876 15.9781,-11.60876 z"
             id="path3299"
             style="opacity:0.93999999;fill:#00ff00;fill-opacity:1;stroke:none" />
        </g>
        <g
           id="g3415"
           style="fill:#0000ff">
          <path
             inkscape:connector-curvature="0"
             d="m 350.71684,572.50452 c 0.79541,5.64567 2.28974,11.15474 3.63929,16.68434 2.52967,9.72063 5.07874,19.4357 7.79427,29.10631 3.48339,12.23431 6.79944,24.51799 9.75576,36.8911 2.91859,12.25545 5.83035,24.51247 8.58942,36.80476 1.32789,7.34221 4.26607,14.23881 5.95551,21.47914 1.35574,6.34018 2.477,12.72726 3.6463,19.10372 0.62426,3.92114 0.29231,1.98474 0.99303,5.80969 0,0 -19.09917,3.37558 -19.09917,3.37558 l 0,0 c -0.68632,-3.86085 -0.36761,-1.92138 -0.95535,-5.81853 -1.11374,-6.35624 -2.17187,-12.72468 -3.69158,-19.00032 -1.63703,-7.24455 -4.19745,-14.25588 -5.43213,-21.60027 -2.54366,-12.32048 -5.38038,-24.57517 -8.38554,-36.79053 -3.06368,-12.32607 -6.20097,-24.63964 -9.84229,-36.80952 -2.71968,-9.7044 -5.62205,-19.35733 -8.27297,-29.07952 -1.392,-5.59572 -2.97405,-11.14323 -4.1534,-16.79028 0,0 19.45885,-3.36567 19.45885,-3.36567 z"
             id="path3335"
             style="opacity:0.93999999;fill:#0000ff;fill-opacity:1;stroke:none" />
          <path
             inkscape:connector-curvature="0"
             d="m 364.77777,721.59752 c 4.32812,2.8233 8.38377,6.03281 12.5947,9.02504 4.23756,2.32855 8.36719,4.79822 12.19418,7.75828 0.4721,0.37464 0.8692,0.87113 1.41632,1.12392 0.36365,0.16801 0.79919,0.0562 1.19879,0.0843 -6.04168,0.86515 -12.04929,2.01616 -18.12504,2.59545 -0.52719,0.0503 0.89585,-0.5885 1.24567,-0.98609 1.0922,-1.24137 2.14506,-3.32681 2.92104,-4.71372 3.777,-7.59014 6.84365,-15.5485 9.49843,-23.59648 1.64278,-5.27537 0.87971,-2.67757 2.29903,-7.79051 0,0 19.03134,-2.47991 19.03134,-2.47991 l 0,0 c -1.48696,5.18668 -0.69271,2.55874 -2.3909,7.88137 -2.63044,8.11557 -5.74563,16.08561 -9.18495,23.89136 -0.28221,0.56268 -3.27385,6.74751 -3.73421,6.86574 -14.04308,3.60663 -16.11822,7.74285 -23.13333,1.94792 -3.83254,-2.86355 -7.97521,-5.21619 -12.03135,-7.74161 -4.20046,-3.02741 -8.28777,-6.26319 -12.84219,-8.7536 0,0 19.04247,-5.11151 19.04247,-5.11151 z"
             id="path3337"
             style="opacity:0.93999999;fill:#0000ff;fill-opacity:1;stroke:none" />
        </g>
        <path
           style="opacity:0.93999999;fill:#000000;fill-opacity:1;stroke:none"
           id="path3339"
           d="m 436.51819,799.93007 c 4.17941,1.9913 8.88494,2.35835 13.43246,2.77257 2.7624,0.0424 5.56109,0.48406 8.32738,0.33113 0.97364,-0.0538 3.86217,-0.54164 2.90076,-0.37867 -17.72148,3.00415 -20.83084,4.14971 -12.8993,1.63363 6.00263,-2.44569 10.65958,-6.85076 14.94577,-11.5721 4.01197,-4.86662 6.53479,-10.6382 8.69417,-16.50197 1.56893,-4.45437 2.30375,-9.11224 2.76334,-13.79186 0,0 19.27341,-2.84808 19.27341,-2.84808 l 0,0 c -0.53046,4.83423 -1.29956,9.6475 -2.85081,14.27562 -2.13134,6.09059 -4.67537,12.0738 -8.63197,17.23321 -4.28642,4.96745 -8.92061,9.56865 -14.85624,12.55545 -11.53145,4.39534 -24.00335,6.12508 -36.22094,4.88081 -4.76265,-0.55524 -9.59007,-1.18759 -13.93296,-3.36135 0,0 19.05493,-5.22839 19.05493,-5.22839 z"
           inkscape:connector-curvature="0" />
        <path
           style="opacity:0.93999999;fill:#000000;fill-opacity:1;stroke:none"
           id="path3323"
           d="m 138.16234,666.04765 c -2.13727,4.44925 -2.81859,9.34296 -3.31619,14.19823 -0.35032,5.3684 -0.80164,10.77118 0.0409,16.10805 0.97061,4.48665 3.34067,8.45855 5.76918,12.29197 2.12033,3.39539 4.85632,6.21279 8.2241,8.3557 3.25802,1.93332 6.75234,3.30308 10.4433,4.12052 3.47995,0.59166 7.01736,0.61082 10.53632,0.64511 4.17091,0.009 8.34179,0.006 12.51265,-0.016 1.78672,-0.12752 3.60444,0.11901 5.38931,-0.0285 6.30605,-0.52129 19.64813,-6.37599 -13.9655,5.42849 1.93836,-0.88472 0.99118,-0.35018 2.82729,-1.62859 0,0 19.11402,-4.42389 19.11402,-4.42389 l 0,0 c -1.68302,1.70629 -0.79565,0.96005 -2.63864,2.26631 -15.96338,5.6797 -16.10341,7.61111 -28.15212,7.27065 -4.18679,-5.2e-4 -8.37364,0.0418 -12.56032,0.005 -3.60599,-0.0608 -7.23297,-0.19967 -10.75537,-1.05127 -3.77765,-1.07846 -7.39694,-2.62297 -10.7124,-4.75038 -3.42253,-2.47723 -6.25827,-5.49952 -8.44711,-9.13663 -2.53439,-4.08025 -5.00474,-8.28022 -6.03957,-13.0278 -0.88663,-5.49982 -0.37962,-11.07252 -0.084,-16.61012 0.42846,-4.98083 0.99944,-9.98461 2.81773,-14.68461 0,0 18.99636,-5.33253 18.99636,-5.33253 z"
           inkscape:connector-curvature="0" />
        <text
           xml:space="preserve"
           style="font-size:40px;font-style:normal;font-weight:normal;line-height:125%;letter-spacing:0px;word-spacing:0px;fill:#000000;fill-opacity:1;stroke:none;font-family:Sans"
           x="117.15968"
           y="780.76471"
           id="text3387"
           sodipodi:linespacing="125%"><tspan
             sodipodi:role="line"
             id="tspan3389"
             x="117.15968"
             y="780.76471"
             style="font-size:60px;font-weight:bold;-inkscape-font-specification:Sans Bold">-1</tspan></text>
        <g
           id="g3396"
           transform="translate(133.136,-151.77504)">
          <path
             style="opacity:0.93999999;fill:#000000;fill-opacity:1;stroke:none"
             id="path3398"
             d="m 138.16234,666.04765 c -2.13727,4.44925 -2.81859,9.34296 -3.31619,14.19823 -0.35032,5.3684 -0.80164,10.77118 0.0409,16.10805 0.97061,4.48665 3.34067,8.45855 5.76918,12.29197 2.12033,3.39539 4.85632,6.21279 8.2241,8.3557 3.25802,1.93332 6.75234,3.30308 10.4433,4.12052 3.47995,0.59166 7.01736,0.61082 10.53632,0.64511 4.17091,0.009 8.34179,0.006 12.51265,-0.016 1.78672,-0.12752 3.60444,0.11901 5.38931,-0.0285 6.30605,-0.52129 19.64813,-6.37599 -13.9655,5.42849 1.93836,-0.88472 0.99118,-0.35018 2.82729,-1.62859 0,0 19.11402,-4.42389 19.11402,-4.42389 l 0,0 c -1.68302,1.70629 -0.79565,0.96005 -2.63864,2.26631 -15.96338,5.6797 -16.10341,7.61111 -28.15212,7.27065 -4.18679,-5.2e-4 -8.37364,0.0418 -12.56032,0.005 -3.60599,-0.0608 -7.23297,-0.19967 -10.75537,-1.05127 -3.77765,-1.07846 -7.39694,-2.62297 -10.7124,-4.75038 -3.42253,-2.47723 -6.25827,-5.49952 -8.44711,-9.13663 -2.53439,-4.08025 -5.00474,-8.28022 -6.03957,-13.0278 -0.88663,-5.49982 -0.37962,-11.07252 -0.084,-16.61012 0.42846,-4.98083 0.99944,-9.98461 2.81773,-14.68461 0,0 18.99636,-5.33253 18.99636,-5.33253 z"
             inkscape:connector-curvature="0" />
          <text
             xml:space="preserve"
             style="font-size:40px;font-style:normal;font-weight:normal;line-height:125%;letter-spacing:0px;word-spacing:0px;fill:#000000;fill-opacity:1;stroke:none;font-family:Sans"
             x="117.15968"
             y="780.76471"
             id="text3400"
             sodipodi:linespacing="125%"><tspan
               sodipodi:role="line"
               id="tspan3402"
               x="117.15968"
               y="780.76471"
               style="font-size:60px;font-weight:bold;-inkscape-font-specification:Sans Bold">-1</tspan></text>
        </g>
        <text
           sodipodi:linespacing="125%"
           id="text3411"
           y="827.3623"
           x="484.61505"
           style="font-size:40px;font-style:normal;font-weight:normal;line-height:125%;letter-spacing:0px;word-spacing:0px;fill:#000000;fill-opacity:1;stroke:none;font-family:Sans"
           xml:space="preserve"><tspan
             style="font-size:60px;font-weight:bold;-inkscape-font-specification:Sans Bold"
             y="827.3623"
             x="484.61505"
             id="tspan3413"
             sodipodi:role="line">+1</tspan></text>
        <text
           xml:space="preserve"
           style="font-size:40px;font-style:normal;font-weight:normal;line-height:125%;letter-spacing:0px;word-spacing:0px;fill:#000080;fill-opacity:1;stroke:none;font-family:Sans"
           x="379.43762"
           y="675.58728"
           id="text3419"
           sodipodi:linespacing="125%"><tspan
             sodipodi:role="line"
             id="tspan3421"
             x="379.43762"
             y="675.58728"
             style="font-size:60px;font-weight:bold;fill:#000080;-inkscape-font-specification:Sans Bold">-5</tspan></text>
        <text
           sodipodi:linespacing="125%"
           id="text3423"
           y="533.13177"
           x="94.526581"
           style="font-size:40px;font-style:normal;font-weight:normal;line-height:125%;letter-spacing:0px;word-spacing:0px;fill:#008000;fill-opacity:1;stroke:none;font-family:Sans"
           xml:space="preserve"><tspan
             style="font-size:60px;font-weight:bold;fill:#008000;-inkscape-font-specification:Sans Bold"
             y="533.13177"
             x="94.526581"
             id="tspan3425"
             sodipodi:role="line">+3</tspan></text>
        <path
           style="opacity:0.93999999;fill:#ff0000;fill-opacity:1;stroke:none"
           id="path3429"
           d="m 270.77544,401.82762 c -0.2456,5.75515 -0.18447,11.51932 -0.17377,17.27848 -0.0123,5.72391 1.15765,11.20716 3.02015,16.58342 1.75805,5.14199 4.87485,9.58037 8.29889,13.7334 2.55122,3.43028 6.09769,4.74254 10.17643,5.28435 4.29534,0.42464 8.61936,0.34197 12.92967,0.32938 4.39861,-0.0278 8.79721,-0.0557 13.1959,-0.0659 7.21941,-0.32092 21.11902,-0.0445 -11.13207,1.06183 -0.70865,0.0243 1.33893,-0.47576 1.97735,-0.78431 0.70439,-0.34042 1.36097,-0.77197 2.04146,-1.15796 4.83321,-2.98398 8.71808,-7.05935 12.36255,-11.35162 3.97713,-4.86889 7.53333,-10.05151 11.30633,-15.07493 3.2678,-4.5805 6.38903,-9.2636 9.55642,-13.91368 2.38897,-3.88027 4.55396,-7.87408 7.99707,-10.9208 2.85207,-2.28469 6.35536,-3.0204 9.8914,-3.44266 9.41468,-1.72951 18.52959,-1.80137 27.89257,-1.72522 3.50114,0.44569 5.76401,3.00015 8.089,5.39413 3.34107,4.82669 6.24274,9.94307 9.41357,14.88681 3.50459,5.23434 7.39655,10.20587 11.4217,15.04798 3.63759,4.07371 7.96432,7.42841 12.11144,10.95483 3.69761,2.88981 7.3267,5.86116 11.03013,8.74279 3.55137,2.68788 7.64991,3.71394 11.88313,4.73375 4.3082,0.71619 8.53295,1.76693 12.75774,2.85552 3.9208,1.51754 8.09628,2.07431 12.25603,2.44872 4.89241,0.28463 9.79639,0.2586 14.69514,0.26228 5.19391,2.8e-4 10.38781,-0.0208 15.58172,-0.0213 0.88285,-2e-4 1.76571,-4e-4 2.64856,-6.2e-4 0.009,0 5.38016,-0.001 5.37951,-0.001 -30.54111,2.91564 -17.12815,1.7528 -10.43213,0.23178 5.86819,-1.94341 11.62215,-4.21614 17.44425,-6.298 6.30954,-2.14636 11.83668,-5.71845 17.05435,-9.77999 5.18045,-4.15703 9.8485,-8.87173 14.16692,-13.90525 3.62597,-4.33134 7.24991,-8.6632 10.64914,-13.17597 2.81878,-3.96603 5.38827,-8.10943 8.39942,-11.93431 2.22208,-2.96902 4.83219,-5.60204 7.25982,-8.39544 5.58117,-5.4721 2.00798,-2.31346 21.12398,-2.42466 0.54686,-0.003 0.46624,0.98996 0.67285,1.4963 0.72841,1.78509 1.13367,3.67423 1.62843,5.53224 1.42433,4.79187 2.93619,9.55537 4.21807,14.38815 0.19793,0.75291 0.39587,1.50581 0.5938,2.25872 0,0 -19.40905,2.00838 -19.40905,2.00838 l 0,0 c -0.1775,-0.74426 -0.35501,-1.48852 -0.53251,-2.23278 -1.30932,-4.8209 -2.82015,-9.58274 -4.30282,-14.35236 -0.1721,-0.57331 -0.88264,-3.0191 -1.16825,-3.70245 -0.16488,-0.39448 -0.32671,-0.80738 -0.60794,-1.12941 -0.10674,-0.12223 -0.63552,-0.0915 -0.47428,-0.10983 23.44567,-2.66528 24.88984,-2.89955 17.95617,-1.84292 -2.51926,2.74503 -5.15143,5.38062 -7.45353,8.31413 -3.1549,3.68456 -5.65888,7.87567 -8.43994,11.84207 -3.38203,4.60571 -7.13326,8.90748 -10.78115,13.30165 -4.32205,5.15345 -9.00493,9.99703 -14.20072,14.282 -5.20044,4.23121 -10.67271,8.09054 -17.031,10.4008 -5.79862,2.17925 -11.67131,4.16181 -17.4185,6.482 -11.53891,3.44672 -23.87935,3.28236 -35.86288,3.29163 -5.19465,0.0114 -10.38934,0.0147 -15.584,0.0155 -4.95385,-0.0167 -9.92084,0.0132 -14.85868,-0.43533 -4.18444,-0.52692 -8.29847,-1.37322 -12.30034,-2.7309 -4.20428,-1.09234 -8.46139,-1.91866 -12.70327,-2.8458 -4.37642,-1.1101 -8.4861,-2.68058 -12.06029,-5.53538 -3.69732,-2.897 -7.31527,-5.89217 -10.97187,-8.84024 -4.1854,-3.59631 -8.54829,-7.03168 -12.0828,-11.30621 -3.99347,-4.93189 -7.93133,-9.92489 -11.35267,-15.27799 -3.16072,-4.8432 -6.00133,-9.95034 -9.67515,-14.42443 -2.28219,-2.17345 -4.55648,-4.04007 -7.89335,-3.8827 -7.64683,-0.0438 -22.63052,0.72395 10.87842,-1.49155 -3.40178,0.19498 -6.90964,0.51194 -9.90007,2.29301 -3.70341,2.62909 -5.91894,6.43228 -8.15087,10.32445 -3.13395,4.72168 -6.45987,9.32329 -9.63812,14.01937 -3.80379,5.03435 -7.42934,10.19166 -11.30585,15.17267 -3.65,4.43791 -7.44984,8.70942 -12.2329,11.98128 -0.2108,0.13974 -3.648,2.46295 -3.98715,2.51493 -9.2457,1.41709 -18.17897,2.6013 -27.40374,2.47852 -4.38889,0.0158 -8.77774,0.0374 -13.16661,0.0571 -4.35348,0.006 -8.73915,0.0433 -13.04666,-0.67594 -4.2725,-1.01416 -7.76873,-3.01339 -10.37222,-6.66264 -3.41082,-4.40198 -6.47163,-9.10412 -8.28991,-14.40984 -1.89196,-5.58913 -3.07444,-11.28895 -3.04641,-17.22333 0.0107,-5.75004 0.0723,-11.50513 -0.17376,-17.25113 0,0 19.65775,-1.5471 19.65775,-1.5471 z"
           inkscape:connector-curvature="0" />
        <path
           style="opacity:0.93999999;fill:#ff0000;fill-opacity:1;stroke:none"
           id="path3433"
           d="m 597.54865,398.07945 c -3.16535,2.69668 -6.56665,5.04054 -10.18799,7.07734 -3.6481,1.86982 -7.45717,3.43999 -11.34963,4.72292 -3.08398,0.87318 -6.23436,1.15628 -9.19762,2.42032 -0.38313,0.20746 -0.76626,0.41492 -1.14939,0.62238 0,0 -19.70065,-0.54699 -19.70065,-0.54699 l 0,0 c 0.38934,-0.22242 0.77869,-0.44483 1.16804,-0.66725 1.27987,-0.7986 2.77646,-1.61876 4.25442,-1.99223 1.63468,-0.41307 3.45692,-0.17541 5.06134,-0.80284 3.9262,-1.06455 7.66728,-2.66569 11.38009,-4.3171 3.56186,-1.87298 7.06512,-3.89187 9.9538,-6.7353 0,0 19.76759,0.21875 19.76759,0.21875 z"
           inkscape:connector-curvature="0" />
        <text
           xml:space="preserve"
           style="font-size:40px;font-style:normal;font-weight:normal;line-height:125%;letter-spacing:0px;word-spacing:0px;fill:#800000;fill-opacity:1;stroke:none;font-family:Sans"
           x="182.39633"
           y="451.91882"
           id="text3441"
           sodipodi:linespacing="125%"><tspan
             sodipodi:role="line"
             id="tspan3443"
             x="182.39633"
             y="451.91882"
             style="font-size:60px;font-weight:bold;fill:#800000;-inkscape-font-specification:Sans Bold">F<tspan
   style="font-size:40px"
   id="tspan3478">#</tspan>                 G</tspan></text>
        <g
           style="fill:#00ff00"
           id="g3445"
           transform="matrix(-1,0,0,1,863.94034,145.11824)">
          <g
             id="g3455"
             transform="matrix(0.18446183,-0.98283968,0.98283968,0.18446183,-280.48766,605.02858)">
            <path
               inkscape:connector-curvature="0"
               d="m 128.35944,621.3744 c -0.19251,-7.85974 0.93144,-15.49914 2.71487,-23.12787 2.31977,-9.02064 6.8341,-17.17535 11.65331,-25.06227 4.17617,-6.94689 9.10054,-13.32072 14.52178,-19.32404 5.81468,-6.63142 12.14436,-12.72837 18.89565,-18.39171 10.62632,-8.49485 22.75939,-14.87613 34.67996,-21.33499 4.14939,-2.2664 8.72973,-3.49585 13.14228,-5.10202 2.08919,-0.67511 1.15216,-0.18675 2.83501,-1.4183 0,0 -15.30406,12.35453 -15.30406,12.35453 l 0,0 c -1.94937,0.79584 -0.94793,0.4233 -3.00652,1.11169 -4.36011,1.41811 -8.7007,2.96213 -12.72613,5.18868 -7.8622,4.31799 -1.23617,0.70719 10.79883,-6.35062 1.03074,-0.60446 -2.10403,1.13495 -3.12895,1.74922 -1.82278,1.09247 -4.56746,2.95128 -6.26985,4.18137 -1.1112,0.80293 -2.19174,1.64745 -3.28762,2.47118 -6.80112,5.53832 -13.20535,11.48052 -18.96071,18.11722 -5.40494,5.98376 -10.54672,12.14101 -14.76189,19.05192 -4.83111,7.71216 -9.40185,15.66105 -11.87733,24.48904 -1.76373,7.39603 -3.2072,14.81084 -2.37734,22.45924 0,0 -17.54129,8.93773 -17.54129,8.93773 z"
               id="path3447"
               style="opacity:0.93999999;fill:#00ff00;fill-opacity:1;stroke:none" />
            <path
               inkscape:connector-curvature="0"
               d="m 202.15103,498.03748 c 4.06537,0.074 8.13211,0.0593 12.19811,0.0708 4.07508,-0.008 8.15014,-0.0158 12.22521,-0.0335 2.91154,0.59453 5.97114,0.58087 8.82472,1.40655 3.05797,1.49356 3.32485,4.62503 3.53762,7.6678 0.34467,5.88434 -0.67009,11.68339 -1.809,17.42607 -0.83108,3.80121 -1.77294,7.57474 -2.74707,11.34124 0,0 -17.569,8.3672 -17.569,8.3672 l 0,0 c 1.08098,-3.72805 2.01964,-7.48658 2.90252,-11.26634 1.12843,-5.54618 2.27789,-11.15224 1.8398,-16.84853 -0.16519,-2.09613 0.0665,-4.7828 -2.38069,-5.46766 -2.7998,-0.50052 -5.63745,-0.90553 -8.47439,-1.09211 -4.0443,-0.0178 -8.08859,-0.0254 -12.13291,-0.0335 -4.13098,0.0115 -8.26263,-0.002 -12.39302,0.0708 0,0 15.9781,-11.60876 15.9781,-11.60876 z"
               id="path3449"
               style="opacity:0.93999999;fill:#00ff00;fill-opacity:1;stroke:none" />
          </g>
        </g>
        <text
           xml:space="preserve"
           style="font-size:40px;font-style:normal;font-weight:normal;line-height:125%;letter-spacing:0px;word-spacing:0px;fill:#008000;fill-opacity:1;stroke:none;font-family:Sans"
           x="565.828"
           y="730.17303"
           id="text3451"
           sodipodi:linespacing="125%"><tspan
             sodipodi:role="line"
             id="tspan3453"
             x="565.828"
             y="730.17303"
             style="font-size:60px;font-weight:bold;fill:#008000;-inkscape-font-specification:Sans Bold">+3</tspan></text>
        <text
           xml:space="preserve"
           style="font-size:40px;font-style:normal;font-weight:normal;line-height:125%;letter-spacing:0px;word-spacing:0px;fill:#000000;fill-opacity:1;stroke:none;font-family:Sans"
           x="307.54416"
           y="509.1673"
           id="text3480"
           sodipodi:linespacing="125%"><tspan
             sodipodi:role="line"
             id="tspan3482"
             x="307.54416"
             y="509.1673"
             style="font-weight:bold;-inkscape-font-specification:Sans Bold">A</tspan></text>
        <text
           sodipodi:linespacing="125%"
           id="text3484"
           y="558.42761"
           x="368.78671"
           style="font-size:40px;font-style:normal;font-weight:normal;line-height:125%;letter-spacing:0px;word-spacing:0px;fill:#000000;fill-opacity:1;stroke:none;font-family:Sans"
           xml:space="preserve"><tspan
             style="font-weight:bold;-inkscape-font-specification:Sans Bold"
             y="558.42761"
             x="368.78671"
             id="tspan3486"
             sodipodi:role="line">G<tspan
   style="font-size:30px"
   id="tspan3488">#</tspan></tspan></text>
        <text
           xml:space="preserve"
           style="font-size:40px;font-style:normal;font-weight:normal;line-height:125%;letter-spacing:0px;word-spacing:0px;fill:#000000;fill-opacity:1;stroke:none;font-family:Sans"
           x="191.71584"
           y="654.28552"
           id="text3490"
           sodipodi:linespacing="125%"><tspan
             sodipodi:role="line"
             id="tspan3492"
             x="191.71584"
             y="654.28552"
             style="font-weight:bold;-inkscape-font-specification:Sans Bold"><tspan
               id="tspan3494"
               style="font-size:30px"><tspan
   style="font-size:40px"
   id="tspan3496">F</tspan>#</tspan></tspan></text>
        <text
           sodipodi:linespacing="125%"
           id="text3498"
           y="711.534"
           x="250.29567"
           style="font-size:40px;font-style:normal;font-weight:normal;line-height:125%;letter-spacing:0px;word-spacing:0px;fill:#000000;fill-opacity:1;stroke:none;font-family:Sans"
           xml:space="preserve"><tspan
             style="font-weight:bold;-inkscape-font-specification:Sans Bold"
             y="711.534"
             x="250.29567"
             id="tspan3500"
             sodipodi:role="line"><tspan
               style="font-size:30px"
               id="tspan3502"><tspan
   style="font-size:40px"
   id="tspan3506">E</tspan>#</tspan></tspan></text>
        <text
           xml:space="preserve"
           style="font-size:40px;font-style:normal;font-weight:normal;line-height:125%;letter-spacing:0px;word-spacing:0px;fill:#000000;fill-opacity:1;stroke:none;font-family:Sans"
           x="657.69183"
           y="607.68793"
           id="text3508"
           sodipodi:linespacing="125%"><tspan
             sodipodi:role="line"
             id="tspan3510"
             x="657.69183"
             y="607.68793"
             style="font-weight:bold;-inkscape-font-specification:Sans Bold">G<tspan
   id="tspan3512"
   style="font-size:30px" /></tspan></text>
        <text
           sodipodi:linespacing="125%"
           id="text3514"
           y="796.74103"
           x="304.88144"
           style="font-size:40px;font-style:normal;font-weight:normal;line-height:125%;letter-spacing:0px;word-spacing:0px;fill:#000000;fill-opacity:1;stroke:none;font-family:Sans"
           xml:space="preserve"><tspan
             style="font-weight:bold;-inkscape-font-specification:Sans Bold"
             y="796.74103"
             x="304.88144"
             id="tspan3516"
             sodipodi:role="line">D<tspan
   style="font-size:30px"
   id="tspan3520">#</tspan></tspan></text>
        <text
           sodipodi:linespacing="125%"
           id="text3541"
           y="747.48071"
           x="483.28366"
           style="font-size:40px;font-style:normal;font-weight:normal;line-height:125%;letter-spacing:0px;word-spacing:0px;fill:#000000;fill-opacity:1;stroke:none;font-family:Sans"
           xml:space="preserve"><tspan
             style="font-weight:bold;-inkscape-font-specification:Sans Bold"
             y="747.48071"
             x="483.28366"
             id="tspan3543"
             sodipodi:role="line">E</tspan></text>
      </g>
    </g>
  </g>
</svg>
