<?xml version="1.0" encoding="UTF-8" standalone="no"?>
<!-- Created with Inkscape (http://www.inkscape.org/) -->

<svg
   xmlns:ns0="http://www.lyua.org/inkscape/extensions/inksyntax/"
   xmlns:dc="http://purl.org/dc/elements/1.1/"
   xmlns:cc="http://creativecommons.org/ns#"
   xmlns:rdf="http://www.w3.org/1999/02/22-rdf-syntax-ns#"
   xmlns:svg="http://www.w3.org/2000/svg"
   xmlns="http://www.w3.org/2000/svg"
   xmlns:sodipodi="http://sodipodi.sourceforge.net/DTD/sodipodi-0.dtd"
   xmlns:inkscape="http://www.inkscape.org/namespaces/inkscape"
   width="400"
   height="320"
   id="svg2"
   version="1.1"
   inkscape:version="0.48.4 r9939"
   sodipodi:docname="New document 1">
  <sodipodi:namedview
     id="base"
     pagecolor="#ffffff"
     bordercolor="#666666"
     borderopacity="1.0"
     inkscape:pageopacity="0.0"
     inkscape:pageshadow="2"
     inkscape:zoom="1.1665862"
     inkscape:cx="136.87758"
     inkscape:cy="227.15853"
     inkscape:document-units="px"
     inkscape:current-layer="layer1"
     showgrid="false"
     inkscape:window-width="1280"
     inkscape:window-height="750"
     inkscape:window-x="0"
     inkscape:window-y="0"
     inkscape:window-maximized="1" />
  <defs
     id="defs4" />
  <metadata
     id="metadata7">
    <rdf:RDF>
      <cc:Work
         rdf:about="">
        <dc:format>image/svg+xml</dc:format>
        <dc:type
           rdf:resource="http://purl.org/dc/dcmitype/StillImage" />
        <dc:title></dc:title>
      </cc:Work>
    </rdf:RDF>
  </metadata>
  <g
     id="layer1"
     inkscape:groupmode="layer"
     inkscape:label="Layer 1"
     transform="translate(0,-732.36218)">
    <g
       id="g2990"
       style="font-size:15px;font-family:monospace"
       ns0:text="upper = {\n \\clef treble\n \\key c \\major\n \\time 4/4\n  \n &lt;c\' e\'\' g\'&gt;1\n}\n\n\n\\score {\n  \\new PianoStaff &lt;&lt;\n    \\new Staff = &quot;teste&quot; \\upper\n  &gt;&gt;\n  \\layout { }\n  \\midi { }\n}\n"
       font-size="14px"
       transform="translate(11.649155,739.72137)">
      <text
         id="text2992"
         xml:space="preserve"
         y="14"
         x="0">upper = <tspan
   id="tspan2994"
   style="fill:#ff0000">{</tspan></text>
      <text
         id="text2996"
         xml:space="preserve"
         y="33"
         x="0"> <tspan
   id="tspan2998"
   font-weight="bold"
   style="font-weight:bold;fill:#008000">\clef</tspan> treble</text>
      <text
         id="text3000"
         xml:space="preserve"
         y="52"
         x="0"> <tspan
   id="tspan3002"
   font-weight="bold"
   style="font-weight:bold;fill:#008000">\key</tspan> c <tspan
   id="tspan3004"
   font-weight="bold"
   style="font-weight:bold;fill:#008000">\major</tspan></text>
      <text
         id="text3006"
         xml:space="preserve"
         y="71"
         x="0"> <tspan
   id="tspan3008"
   font-weight="bold"
   style="font-weight:bold;fill:#008000">\time</tspan> 4/4</text>
      <text
         id="text3010"
         xml:space="preserve"
         y="90"
         x="0">  </text>
      <text
         id="text3012"
         xml:space="preserve"
         y="109"
         x="0"><tspan
   style="fill:#800080"
   id="tspan3111"> &lt;</tspan>c' e'' g'<tspan
   style="fill:#800080"
   id="tspan3113">&gt;</tspan>1</text>
      <text
         id="text3014"
         xml:space="preserve"
         y="128"
         x="0"><tspan
           id="tspan3016"
           style="fill:#ff0000">}</tspan></text>
      <text
         id="text3018"
         xml:space="preserve"
         y="147"
         x="0" />
      <text
         id="text3020"
         xml:space="preserve"
         y="166"
         x="0" />
      <text
         id="text3022"
         xml:space="preserve"
         y="185"
         x="0">\score <tspan
   id="tspan3026"
   style="fill:#ff0000">{</tspan></text>
      <text
         id="text3028"
         xml:space="preserve"
         y="204"
         x="0">  \new PianoStaff <tspan
   style="fill:#800080"
   id="tspan3109">&lt;&lt;</tspan></text>
      <text
         id="text3032"
         xml:space="preserve"
         y="223"
         x="0">    <tspan
   id="tspan3034"
   font-weight="bold"
   style="font-weight:bold;fill:#008000">\new</tspan> Staff = &quot;teste&quot; <tspan
   id="tspan3036"
   font-weight="bold"
   style="font-weight:bold;fill:#008000">\upper</tspan></text>
      <text
         id="text3038"
         xml:space="preserve"
         y="242"
         x="0"><tspan
           style="fill:#800080"
           id="tspan3107">  &gt;&gt;</tspan></text>
      <text
         id="text3040"
         xml:space="preserve"
         y="261"
         x="0">  \layout <tspan
   id="tspan3044"
   style="fill:#ff0000">{ }</tspan></text>
      <text
         id="text3048"
         xml:space="preserve"
         y="280"
         x="0">  \midi <tspan
   id="tspan3052"
   style="fill:#ff0000">{ }</tspan></text>
      <text
         id="text3056"
         xml:space="preserve"
         y="299"
         x="0"><tspan
           id="tspan3058"
           style="fill:#ff0000">}</tspan></text>
      <text
         id="text3060"
         xml:space="preserve"
         y="318"
         x="0" />
    </g>
    <path
       style="fill:#000000"
       d="m 299.21869,918.82554 c -4.24066,-0.61984 -8.73905,-2.78302 -10.74514,-5.16713 -1.36867,-1.62656 -2.05264,-1.87385 -5.65346,-2.04407 -3.6023,-0.17027 -4.09643,-0.3491 -4.09643,-1.48242 0,-1.11311 0.53699,-1.3327 3.93944,-1.61098 3.443,-0.28159 4.15543,-0.57978 5.65345,-2.36626 5.02638,-5.99422 18.18396,-7.48486 26.93319,-3.05128 1.78686,0.90548 3.68267,2.46233 4.28272,3.51702 0.98763,1.73594 1.37229,1.89272 4.653,1.89646 3.69209,0.004 5.27384,0.79414 4.68143,2.33796 -0.23946,0.624 -1.5437,0.88806 -4.38628,0.88806 -3.60077,0 -4.16117,0.17655 -5.09778,1.606 -1.4621,2.23146 -6.55507,4.66099 -11.42835,5.45175 -2.25476,0.36587 -4.38953,0.63123 -4.74396,0.58969 -0.35441,-0.0416 -2.15073,-0.2957 -3.99183,-0.5648 z m 9.82065,-2.8648 c 0.86993,-0.86993 1.58169,-2.17482 1.58169,-2.89977 0,-1.23996 -0.38187,-1.31807 -6.44391,-1.31807 -3.54416,0 -6.43747,0.21748 -6.42959,0.48329 0.0296,0.99775 2.30975,3.35398 4.17422,4.31345 2.818,1.45019 5.28952,1.24918 7.11759,-0.5789 z m 0.9373,-7.99728 c 0,-2.26031 -5.27692,-5.88642 -8.56626,-5.88642 -1.86102,0 -4.04787,2.28445 -4.47225,4.67183 l -0.315,1.77207 6.67675,0 c 3.67222,0 6.67676,-0.25087 6.67676,-0.55748 z m -145.53892,10.17828 c -4.72557,-1.89271 -8.45148,-7.36156 -8.46433,-12.4239 -0.005,-1.96687 0.44766,-2.93486 2.18464,-4.67183 1.8372,-1.8372 2.65533,-2.19094 5.06726,-2.19094 2.24181,0 3.24765,0.37132 4.55953,1.6832 2.2319,2.23191 2.77569,5.3075 1.40654,7.95516 -1.17406,2.27036 -4.72527,4.13465 -6.58323,3.456 -1.04909,-0.3832 -1.03692,-0.28087 0.12356,1.03896 4.9364,5.61423 12.98288,3.58847 16.46522,-4.14525 1.08402,-2.40744 1.44422,-5.81302 1.312,-12.40453 l -0.0549,-2.73866 -20.90469,0 c -13.24135,0 -21.05068,-0.23623 -21.30295,-0.6444 -0.26099,-0.4223 4.66737,-0.64747 14.29968,-0.65333 l 14.69794,-0.009 -2.81959,-1.44094 c -3.58576,-1.8325 -8.59245,-7.28458 -10.15193,-11.05504 l -1.205,-2.91342 -7.41055,-0.18017 c -9.67994,-0.23532 -9.84626,-1.40732 -0.23422,-1.65045 l 7.17631,-0.18152 -0.62664,-2.71824 c -0.60067,-2.60559 -0.43548,-6.12456 0.49818,-10.61204 l 0.43573,-2.09427 -7.13082,0 c -4.05879,0 -7.3024,-0.27761 -7.52909,-0.64439 -0.25727,-0.41627 2.41277,-0.64439 7.54254,-0.64439 l 7.9408,0 1.46228,-3.06086 c 0.80425,-1.68348 3.04753,-5.01853 4.98506,-7.41123 1.93753,-2.39271 3.52278,-4.4889 3.52278,-4.65822 0,-0.16931 -5.72703,-0.38646 -12.72673,-0.48256 -17.79347,-0.24428 -16.87894,-1.41204 1.28216,-1.63715 l 14.00888,-0.17365 1.06107,-1.61939 c 0.99623,-1.52045 0.97127,-1.9922 -0.40846,-7.72016 l -1.46954,-6.10074 -13.40129,0 c -8.23909,0 -13.5547,-0.24823 -13.79955,-0.64439 -0.26073,-0.4219 4.34306,-0.64455 13.3331,-0.64483 l 13.73134,-4.3e-4 0,-7.89337 c 0,-7.22059 0.14764,-8.20836 1.73214,-11.58924 3.2108,-6.85091 7.97394,-11.72956 9.89513,-10.13511 1.80789,1.50042 6.63688,12.16115 7.72591,17.05612 0.64753,2.91052 0.98107,6.47475 0.8175,8.736 l -0.27628,3.81963 104.06941,-0.005 c 57.23817,-0.003 104.30778,0.23334 104.59912,0.52468 0.29135,0.29135 0.45464,15.88137 0.36287,34.6445 l -0.16686,34.11475 -105.11251,0.16302 -105.11251,0.16302 -0.30048,6.75619 c -0.26059,5.85938 -0.55171,7.2491 -2.19314,10.46944 -2.65316,5.20526 -6.71226,7.91774 -11.76348,7.86094 -1.99783,-0.0225 -4.31527,-0.31433 -5.14987,-0.64861 z m 226.08784,-33.46328 0,-7.73269 -34.95823,0.004 -34.95823,0.004 -1.07664,1.89238 c -0.60005,1.05469 -2.49586,2.61155 -4.28272,3.51702 -8.86551,4.4925 -22.15381,2.9038 -27.05128,-3.23414 l -1.7421,-2.18295 -45.5907,-1e-5 -45.59069,-3e-5 -0.0141,1.44988 c -0.0392,4.01048 -4.70834,10.45117 -9.1819,12.66556 l -2.72518,1.34894 103.58591,5.1e-4 103.58591,5.1e-4 0,-7.7327 z M 180.0204,889.1892 c -0.0612,-0.53162 -0.45368,-3.50388 -0.87204,-6.60501 l -0.76068,-5.63842 -5.11124,0 c -4.90601,0 -5.08364,0.0516 -4.42375,1.2846 0.37812,0.70652 1.54823,1.92096 2.60023,2.69874 2.27826,1.68439 2.48203,3.10496 0.44537,3.10496 -1.58812,0 -4.74374,-2.57294 -6.56536,-5.35308 -1.00149,-1.52846 -1.55045,-1.73522 -4.60701,-1.73522 -4.19506,0 -4.45678,0.86689 -1.57516,5.21735 3.76706,5.68722 9.11238,8.38595 16.14808,8.15281 3.85456,-0.12772 4.81039,-0.35582 4.72156,-1.12673 z m 6.27535,-1.74541 c 2.33872,-1.96791 4.43313,-6.07081 4.45433,-8.72594 l 0.0141,-1.77208 -4.83293,0 c -2.65812,0 -4.83294,0.0917 -4.83294,0.20385 0,0.11211 0.2947,1.92446 0.65489,4.02744 0.36019,2.10298 0.8083,4.76602 0.9958,5.91788 0.41446,2.54624 0.88074,2.5921 3.5467,0.34885 z m 122.74359,-5.6358 c 0.86993,-0.86993 1.58169,-2.31981 1.58169,-3.22196 l 0,-1.64026 -6.82939,0 -6.82939,0 1.3221,2.0881 c 2.66896,4.21534 7.95128,5.57784 10.75499,2.77412 z M 163.56142,871.54788 c 0.0367,-4.07938 1.74279,-7.84531 4.67031,-10.30865 l 2.01086,-1.69203 -4.8114,0 -4.81142,0 -1.28608,2.73866 c -1.73955,3.70434 -2.71428,7.40095 -2.7186,10.31027 l -0.003,2.41646 3.45939,0 3.4594,0 0.0311,-3.46471 z m 14.08059,2.33702 c -0.17667,-0.62022 -0.65174,-2.79504 -1.05569,-4.83293 -0.40395,-2.03789 -1.01319,-3.70525 -1.35386,-3.70525 -0.34067,0 -1.57631,0.39983 -2.74588,0.8885 -2.8744,1.201 -4.92044,3.94914 -4.92044,6.60891 l 0,2.16846 5.19856,0 c 4.64379,0 5.16427,-0.12034 4.87731,-1.12769 z m 12.47784,0.77983 c 0,-0.19133 -0.58568,-1.4959 -1.30152,-2.89904 -1.36185,-2.66947 -4.86551,-5.39351 -7.88107,-6.12741 -2.06324,-0.50213 -2.07197,-0.45682 -1.01629,5.27257 l 0.75577,4.10174 4.72156,0 c 2.59685,0 4.72155,-0.15654 4.72155,-0.34786 z m 39.24533,-1.74641 c -3.07371,-2.34908 -5.42664,-6.47785 -6.04622,-10.60953 l -0.41412,-2.76159 -18.1503,0 -18.1503,0 2.40283,1.98062 c 3.13472,2.5839 5.51591,6.72033 6.0307,10.47609 l 0.41238,3.00868 18.32766,0 18.32766,0 -2.74029,-2.09427 z m 57.72658,0.8338 c 0.51807,-1.63228 3.91019,-4.47898 6.75974,-5.67283 8.73639,-3.66021 23.09675,-0.97361 25.79101,4.82508 l 0.96659,2.08034 34.95823,0.0139 34.95823,0.0139 0,-7.7327 0,-7.7327 -78.93795,0 -78.93793,0 0,4.53145 c 0,5.01922 1.14478,8.5335 3.12504,9.5933 2.05776,1.10128 6.64866,0.82215 8.88266,-0.54007 2.46341,-1.50211 5.13511,-4.90701 5.73427,-7.30794 0.50311,-2.01601 1.30296,-2.75137 1.91518,-1.76078 0.89679,1.45103 -0.60366,4.79846 -3.49582,7.79905 l -3.03658,3.15039 20.45864,0 c 19.73957,0 20.4727,-0.0443 20.85869,-1.26048 z m 22.4609,-0.76644 c -1.63064,-2.78448 -4.0494,-4.44888 -7.04232,-4.84597 -2.07192,-0.2749 -2.77018,-0.0653 -3.91432,1.17488 -1.19213,1.2922 -1.84105,3.43597 -1.57854,5.21471 0.0393,0.26581 3.14277,0.48329 6.89675,0.48329 l 6.82543,0 -1.187,-2.02691 z m -135.5426,-15.48887 c 0,-1.43419 -2.7182,-10.83744 -3.13145,-10.83282 -0.51033,0.005 -6.402,7.1144 -8.03828,9.69874 l -1.20026,1.89569 6.18499,0 c 4.32834,0 6.185,-0.22863 6.185,-0.76161 z m 49.24514,-2.53592 c 0.56393,-4.25116 2.592,-8.52964 5.00603,-10.56091 l 1.90976,-1.60696 -28.40266,0 c -15.62146,0 -28.39532,0.21748 -28.38635,0.4833 0.009,0.26581 0.8353,3.52804 1.83629,7.2494 1.80694,6.71771 1.83563,6.76896 4.01112,7.16457 1.20515,0.21916 11.50554,0.43664 22.88977,0.48329 l 20.69861,0.0848 0.43743,-3.29753 z m 167.27036,-4.43517 0,-7.7327 -71.648,0 -71.64801,0 1.69055,1.77208 c 3.2601,3.41733 3.97026,7.8098 1.66021,10.26873 -3.88366,4.13396 -9.99188,-1.03225 -7.32286,-6.19354 0.72067,-1.39364 1.67441,-2.14976 3.06147,-2.42718 l 2.0147,-0.40294 -1.88136,-1.50537 c -1.57996,-1.26423 -2.62737,-1.50589 -6.53833,-1.50858 -4.35077,-0.003 -4.73211,0.11132 -5.79952,1.73837 -0.83168,1.26773 -1.2033,3.37164 -1.36584,7.7327 l -0.2233,5.99113 79.00014,0 79.00015,0 0,-7.7327 z M 290.51602,838.71915 c -4.91805,-3.75111 -4.91038,-7.43874 0.0233,-11.2018 l 2.78331,-2.12289 -54.39916,0 -54.39917,0 -0.74023,2.41646 c -0.64787,2.11498 -3.6215,7.09001 -6.92687,11.58899 l -1.05783,1.43982 58.73831,-0.008 58.73829,-0.008 -2.75997,-2.10512 z m 18.52332,0.55901 c 2.97594,-2.97593 1.60743,-9.57068 -2.55154,-12.29574 -0.88945,-0.5828 -2.71566,-1.20531 -4.05821,-1.38337 -3.42914,-0.4548 -5.44818,1.7142 -5.44818,5.85286 0,7.08097 7.76398,12.12021 12.05793,7.82625 z m 81.48622,-6.15101 0,-7.73269 -38.50239,0.0108 -38.50238,0.0108 2.57756,1.44495 c 1.56644,0.87812 3.04076,2.39066 3.75833,3.85575 1.14474,2.33727 1.14474,2.48432 0,4.82159 -0.71757,1.46507 -2.19189,2.97762 -3.75833,3.85574 l -2.57756,1.44496 38.50238,0.0108 38.50239,0.0108 0,-7.7327 z m -217.34404,-1.12768 c 2.62683,-3.41762 4.20358,-6.02233 3.85601,-6.36991 -0.16361,-0.16361 -2.15969,-0.21094 -4.43573,-0.10514 l -4.13827,0.19227 0.92984,4.34964 c 0.51141,2.3923 1.15506,4.34965 1.43034,4.34965 0.27527,0 1.33628,-1.08741 2.35781,-2.41647 z m 6.32814,-11.41921 c 1.38125,-4.75132 1.24309,-16.45072 -0.19427,-16.45072 -0.56368,0 -4.87885,3.39261 -6.12648,4.81668 -2.31249,2.6395 -4.36167,7.50258 -4.7576,11.29067 l -0.40437,3.86878 5.22893,0 5.22892,0 1.02487,-3.52541 z"
       id="path3180"
       inkscape:connector-curvature="0" />
  </g>
</svg>
