<?xml version="1.0" encoding="UTF-8" standalone="no"?>
<!-- Created with Inkscape (http://www.inkscape.org/) -->
<svg xmlns:dc="http://purl.org/dc/elements/1.1/" xmlns:cc="http://creativecommons.org/ns#" xmlns:rdf="http://www.w3.org/1999/02/22-rdf-syntax-ns#" xmlns:svg="http://www.w3.org/2000/svg" xmlns="http://www.w3.org/2000/svg" xmlns:sodipodi="http://sodipodi.sourceforge.net/DTD/sodipodi-0.dtd" xmlns:inkscape="http://www.inkscape.org/namespaces/inkscape" width="255.86465" height="310" id="svg2" sodipodi:version="0.32" inkscape:version="0.48.4 r9939" version="1.0" sodipodi:docname="Rubin_face_vase.svg">
  <title id="title2985">Rubin face vase</title>
  <defs id="defs4"/>
  <sodipodi:namedview id="base" pagecolor="#ffffff" bordercolor="#666666" borderopacity="1.0" inkscape:pageopacity="0.0" inkscape:pageshadow="2" inkscape:zoom="1.144366" inkscape:cx="-92.535406" inkscape:cy="170.59265" inkscape:document-units="px" inkscape:current-layer="layer1" inkscape:window-width="1280" inkscape:window-height="750" inkscape:window-x="61" inkscape:window-y="16" showgrid="false" fit-margin-top="5" fit-margin-left="5" fit-margin-right="5" fit-margin-bottom="5" inkscape:window-maximized="0"/>
  <metadata id="metadata7">
    <rdf:RDF>
      <cc:Work rdf:about="">
        <dc:format>image/svg+xml</dc:format>
        <dc:type rdf:resource="http://purl.org/dc/dcmitype/StillImage"/>
        <dc:title>Rubin face vase</dc:title>
        <dc:date>08/25/2013</dc:date>
        <dc:creator>
          <cc:Agent>
            <dc:title>edited by Paul Sherman</dc:title>
          </cc:Agent>
        </dc:creator>
        <dc:rights>
          <cc:Agent>
            <dc:title>PD</dc:title>
          </cc:Agent>
        </dc:rights>
        <dc:publisher>
          <cc:Agent>
            <dc:title>WPClipart</dc:title>
          </cc:Agent>
        </dc:publisher>
        <dc:subject>
          <rdf:Bag>
            <rdf:li>vase</rdf:li>
            <rdf:li>faces</rdf:li>
            <rdf:li>optical</rdf:li>
            <rdf:li>illusion</rdf:li>
          </rdf:Bag>
        </dc:subject>
        <cc:license rdf:resource="http://creativecommons.org/licenses/publicdomain/"/>
      </cc:Work>
      <cc:License rdf:about="http://creativecommons.org/licenses/publicdomain/">
        <cc:permits rdf:resource="http://creativecommons.org/ns#Reproduction"/>
        <cc:permits rdf:resource="http://creativecommons.org/ns#Distribution"/>
        <cc:permits rdf:resource="http://creativecommons.org/ns#DerivativeWorks"/>
      </cc:License>
    </rdf:RDF>
  </metadata>
  <g inkscape:label="Layer 1" inkscape:groupmode="layer" id="layer1" transform="translate(-459.79088,1.9681262)">
    <g id="g2272" transform="matrix(1.3880856,0,0,1.3880856,-234.03586,-723.68753)">
      <path id="path1352" d="m 503.44643,736.35802 c 0,-4.38503 10.68109,-8.97486 30.875,-13.26746 8.57615,-1.82302 16.76295,-4.54776 18.41965,-6.13044 2.23119,-2.13153 3.21258,-6.2109 3.89724,-16.2 0.70658,-10.30861 1.78335,-14.63053 4.72522,-18.96559 3.47966,-5.12759 3.56446,-5.69193 0.97775,-6.50736 -9.17846,-2.89339 -9.44608,-3.40096 -2.42611,-4.60124 3.79844,-0.64946 6.89757,-1.29936 6.88696,-1.44425 -0.0106,-0.14487 -1.09881,-4.28528 -2.41821,-9.20091 -1.3194,-4.91563 -2.4076,-9.39248 -2.41821,-9.94856 -0.0106,-0.55609 2.81075,-1.4636 6.26967,-2.01671 7.49687,-1.1988 10.67281,-4.47759 9.369,-9.6724 -0.52523,-2.09268 -6.35318,-10.1058 -12.95099,-17.80693 l -11.99601,-14.00205 -0.83253,-14.30793 c -0.90739,-15.5944 -8.30674,-40.89406 -14.5068,-49.60125 -5.57357,-7.82735 -15.58785,-14.103 -24.36198,-15.26693 -21.97007,-2.91444 -2.3395,-3.87724 79.05285,-3.87724 58.75574,0 88.41485,0.54924 87.75,1.625 -0.55237,0.89375 -3.33772,1.64106 -6.18966,1.66069 -11.16898,0.0769 -24.36595,9.31484 -30.50924,21.35669 -5.86318,11.49276 -11.2386,33.62271 -11.2386,46.26789 l 0,12.04671 -9.37693,10.11526 c -20.32165,21.92172 -21.71749,29.01427 -6.20557,31.53151 6.70565,1.08818 6.59761,0.7326 3.41258,11.23174 -1.33094,4.38735 -2.42781,8.5168 -2.4375,9.17655 -0.01,0.65975 3.06737,1.69286 6.83787,2.29579 6.93303,1.10864 6.67836,1.58452 -2.37531,4.43857 -2.56838,0.80964 -2.45479,1.44922 1.21875,6.86249 3.12301,4.602 4.05319,8.05833 4.06018,15.08663 0.0138,13.91411 2.50918,21.0711 7.78256,22.32137 36.46633,8.64586 45.83337,12.12902 45.83337,17.04326 0,2.96564 -2.86676,3.06485 -88.5625,3.06485 -87.99456,0 -88.5625,-0.0212 -88.5625,-3.30775 z" style="fill:#000000" inkscape:connector-curvature="0"/>
    </g>
  </g>
</svg>