<?xml version="1.0" encoding="UTF-8" standalone="no"?>
<!-- Created with Inkscape (http://www.inkscape.org/) -->

<svg
   xmlns:dc="http://purl.org/dc/elements/1.1/"
   xmlns:cc="http://creativecommons.org/ns#"
   xmlns:rdf="http://www.w3.org/1999/02/22-rdf-syntax-ns#"
   xmlns:svg="http://www.w3.org/2000/svg"
   xmlns="http://www.w3.org/2000/svg"
   xmlns:sodipodi="http://sodipodi.sourceforge.net/DTD/sodipodi-0.dtd"
   xmlns:inkscape="http://www.inkscape.org/namespaces/inkscape"
   width="255.86465"
   height="310"
   id="svg2"
   sodipodi:version="0.32"
   inkscape:version="0.48.4 r9939"
   version="1.0"
   sodipodi:docname="Rubin_vase.svg">
  <title
     id="title2985">Rubin face vase</title>
  <defs
     id="defs4" />
  <sodipodi:namedview
     id="base"
     pagecolor="#ffffff"
     bordercolor="#666666"
     borderopacity="1.0"
     inkscape:pageopacity="0.0"
     inkscape:pageshadow="2"
     inkscape:zoom="1.144366"
     inkscape:cx="-92.535406"
     inkscape:cy="170.59265"
     inkscape:document-units="px"
     inkscape:current-layer="layer1"
     inkscape:window-width="1274"
     inkscape:window-height="748"
     inkscape:window-x="0"
     inkscape:window-y="0"
     showgrid="false"
     fit-margin-top="5"
     fit-margin-left="5"
     fit-margin-right="5"
     fit-margin-bottom="5"
     inkscape:window-maximized="0" />
  <metadata
     id="metadata7">
    <rdf:RDF>
      <cc:Work
         rdf:about="">
        <dc:format>image/svg+xml</dc:format>
        <dc:type
           rdf:resource="http://purl.org/dc/dcmitype/StillImage" />
        <dc:title>Rubin face vase</dc:title>
        <dc:date>08/25/2013</dc:date>
        <dc:creator>
          <cc:Agent>
            <dc:title>edited by Paul Sherman</dc:title>
          </cc:Agent>
        </dc:creator>
        <dc:rights>
          <cc:Agent>
            <dc:title>PD</dc:title>
          </cc:Agent>
        </dc:rights>
        <dc:publisher>
          <cc:Agent>
            <dc:title>WPClipart</dc:title>
          </cc:Agent>
        </dc:publisher>
        <dc:subject>
          <rdf:Bag>
            <rdf:li>vase</rdf:li>
            <rdf:li>faces</rdf:li>
            <rdf:li>optical</rdf:li>
            <rdf:li>illusion</rdf:li>
          </rdf:Bag>
        </dc:subject>
        <cc:license
           rdf:resource="http://creativecommons.org/licenses/publicdomain/" />
      </cc:Work>
      <cc:License
         rdf:about="http://creativecommons.org/licenses/publicdomain/">
        <cc:permits
           rdf:resource="http://creativecommons.org/ns#Reproduction" />
        <cc:permits
           rdf:resource="http://creativecommons.org/ns#Distribution" />
        <cc:permits
           rdf:resource="http://creativecommons.org/ns#DerivativeWorks" />
      </cc:License>
    </rdf:RDF>
  </metadata>
  <g
     inkscape:label="Layer 1"
     inkscape:groupmode="layer"
     id="layer1"
     transform="translate(-459.79088,1.9681262)">
    <rect
       style="fill:#000000;fill-opacity:1;stroke:none"
       id="rect3172"
       width="261.28006"
       height="326.81851"
       x="458.91705"
       y="-3.7958741" />
    <path
       inkscape:connector-curvature="0"
       style="fill:#ffffff"
       d="m 463.91703,296.69274 c 0,-6.08679 14.82627,-12.45787 42.85714,-18.41637 11.90443,-2.5305 23.26841,-6.31268 25.56805,-8.50957 3.09709,-2.95875 4.45934,-8.62126 5.40971,-22.48699 0.98079,-14.30923 2.47544,-20.30843 6.55901,-26.32586 4.83006,-7.11753 4.94777,-7.90089 1.3572,-9.03277 -12.74049,-4.01628 -13.11197,-4.72083 -3.36765,-6.38692 5.27256,-0.9015 9.57442,-1.80362 9.55969,-2.00474 -0.0147,-0.20109 -1.52524,-5.94834 -3.35668,-12.77165 -1.83144,-6.82332 -3.34196,-13.03757 -3.35669,-13.80945 -0.0147,-0.77191 3.90157,-2.03161 8.70284,-2.79937 10.4063,-1.66404 14.81478,-6.21528 13.00498,-13.42612 -0.72907,-2.90482 -8.81876,-14.02772 -17.97709,-24.71754 L 532.22605,116.56934 531.07043,96.708708 C 529.8109,75.062346 519.53997,39.944253 510.93375,27.857928 503.19716,16.992896 489.29648,8.2817564 477.11724,6.6661223 446.6209,2.6206301 473.86981,1.2841812 586.84936,1.2841812 c 81.558,0 122.72738,0.7623922 121.80451,2.2556391 -0.76673,1.2406016 -4.63304,2.2779318 -8.59178,2.3051799 -15.5035,0.1067438 -33.82202,12.9297948 -42.34943,29.6449138 -8.1386,15.952934 -15.60014,46.671199 -15.60014,64.223793 l 0,16.721863 -13.01598,14.04085 c -28.20819,30.42922 -30.14574,40.27429 -8.61387,43.76843 9.30802,1.51049 9.15805,1.01692 4.73696,15.59062 -1.84746,6.09002 -3.37001,11.82205 -3.38346,12.73784 -0.0139,0.91579 4.25777,2.34983 9.49155,3.18675 9.62364,1.53889 9.27013,2.19945 -3.29714,6.16112 -3.56513,1.12385 -3.40745,2.01164 1.69173,9.52572 4.33501,6.38797 5.62618,11.18565 5.63588,20.94153 0.0192,19.31398 3.48296,29.24849 10.80286,30.98398 50.61839,12.00119 63.62064,16.83611 63.62064,23.6575 0,4.11656 -3.97931,4.25427 -122.93233,4.25427 -122.14398,0 -122.93233,-0.0294 -122.93233,-4.59144 z"
       id="path1352" />
  </g>
</svg>
